<?xml version="1.0" encoding="UTF-8"?>
<svg id="Layer_2" xmlns="http://www.w3.org/2000/svg" viewBox="0 0 1686.73 488.49"><defs><style>.cls-1{fill:#f68820;}.cls-2{fill:#24336b;}</style></defs><g id="Layer_1-2"><path class="cls-2" d="m71.09,437.25v51.08H11.48v-172.28h59.62v60.74c5.69-2.8,11.11-5.8,16.23-9.03,5.13-3.21,10.5-7.2,16.09-11.96,5.23-4.57,9.52-9.33,12.88-14.27,3.27-5.04,4.9-9.99,4.9-14.83,0-8.03-2.63-13.04-7.91-15.04-5.27-2.01-12.43-3.01-21.48-3.01H0l14.13-51.92h93.35c17.72,0,32.24,2.96,43.52,8.88,11.29,5.93,19.38,13.7,24.29,23.31,4.89,9.61,7.34,20.1,7.34,31.49,0,9.52-1.87,19.15-5.6,28.9-3.73,9.76-9.89,19.62-18.47,29.6-8.49,10.08-19.99,20.09-34.49,30.01-14.51,9.94-32.17,19.39-52.97,28.34Z"/><path class="cls-2" d="m253.59,256.72v60.32h29.81c15.11,0,27.15,2.31,36.11,6.93,8.96,4.61,15.34,11.73,19.17,21.34,3.83,9.61,5.74,22.2,5.74,37.79v105.24h-54.44v-97.82c-.19-6.81-.42-11.67-.7-14.55-.84-5.97-4.01-9.66-9.52-11.06-3.55-.84-12.27-1.26-26.17-1.26v124.69h-53.6v-231.61h53.6Z"/><path class="cls-2" d="m515.57,317.03v171.3h-55c-17.44,0-33.73-4.81-48.84-14.41-15.02-9.52-27.01-22.39-35.97-38.63-8.87-16.14-13.3-33.54-13.3-52.2,0-12.13,2.21-23.17,6.64-33.09,4.44-9.94,11.9-17.91,22.39-23.94,10.5-6.01,24.24-9.02,41.22-9.02h82.85Zm-54.44,125.39v-78.79h-16.93c-7.37,0-13.62,1.37-18.75,4.12-5.13,2.76-7.7,9.22-7.7,19.39,0,8.4,1.82,16.7,5.46,24.91,3.64,8.12,8.77,14.93,15.39,20.43,6.63,5.51,14.13,8.82,22.53,9.94Z"/><path class="cls-2" d="m543.42,316.89h51.22v10.36c9.15-8.68,21.64-13.39,37.51-14.13v49.4c-16.98.65-28.69,6.58-35.13,17.77v108.04h-53.6v-171.44Z"/><path class="cls-2" d="m650.9,317.03h160.8c15.02,0,26.99,2.31,35.89,6.93,8.92,4.61,15.26,11.73,19.03,21.34,3.79,9.61,5.67,22.2,5.67,37.79v105.24h-52.06v-97.82c-.19-8.31-.72-14.13-1.61-17.49-.89-3.36-2.87-5.74-5.95-7.14-3.08-1.4-8.4-2.15-15.95-2.24h-9.52v124.69h-51.78v-124.69h-32.75v124.69h-51.78v-171.3Z"/><path class="cls-2" d="m1044.99,317.03v171.3h-55c-17.44,0-33.73-4.81-48.84-14.41-15.02-9.52-27.01-22.39-35.97-38.63-8.87-16.14-13.3-33.54-13.3-52.2,0-12.13,2.21-23.17,6.64-33.09,4.44-9.94,11.9-17.91,22.39-23.94,10.5-6.01,24.24-9.02,41.22-9.02h82.85Zm-54.44,125.39v-78.79h-16.93c-7.37,0-13.62,1.37-18.75,4.12-5.13,2.76-7.7,9.22-7.7,19.39,0,8.4,1.82,16.7,5.46,24.91,3.64,8.12,8.77,14.93,15.39,20.43,6.63,5.51,14.13,8.82,22.53,9.94Z"/><path class="cls-1" d="m1217.04,249.69l-78.16,184.97h69.51l-25.16,53.82h-128.55l100.89-238.79h61.46Z"/><path class="cls-1" d="m1335.95,311.73l-74.67,176.75h-55.25l74.67-176.75h55.25Zm26.22-62.04l-20.12,47.62h-55.25l20.12-47.62h55.25Z"/><path class="cls-1" d="m1358.72,311.87h85.99c15.58,0,26.99,2.38,34.21,7.15,7.2,4.76,10.7,12.1,10.45,22-.24,9.92-3.75,22.9-10.54,38.96l-45.84,108.5h-56.13l42.61-100.86c2.77-7.02,4.64-12.02,5.61-15,1.73-6.16.07-9.96-4.99-11.4-3.29-.86-12.12-1.3-26.44-1.3l-54.32,128.56h-55.25l74.62-176.61Z"/><path class="cls-1" d="m1617.29,249.69l-100.89,238.79h-55.25l100.89-238.79h55.25Zm69.44,62.04l-69.21,77.78,2.47,98.98h-61.18l-1.33-97.25,68.66-79.51h60.59Z"/><path class="cls-1" d="m901.64,187.64c-94.75-16.93-155.3-48.64-155.3-87.07,0-55.54,134.69-100.57,300.84-100.57s300.84,45.03,300.84,100.57-134.69,100.57-300.84,100.57c-22.94,0-45.7.28-67.18-1.34,0,0,7.7-4.77,15.99-12.15,8.29-7.38,10.31-10.48,10.31-10.48,0,0,25.41.74,39.75.74,140.59,0,254.56-34.82,254.56-77.77s-113.97-77.77-254.56-77.77-254.56,34.82-254.56,77.77c0,30.67,58.77,56.26,143.21,68.92,0,0-5.2,4.53-13.83,9.3-10,5.53-19.24,9.29-19.24,9.29Z"/><path class="cls-2" d="m786.53,43.61s-8.44,2.48-20.34,10.98c-11.9,8.5-12.77,11.65-12.77,11.65-28-2.69-53.41-3.71-84.45-3.71-158.52,0-287.02,37.9-287.02,84.64s128.5,84.64,287.02,84.64,287.02-37.9,287.02-84.64c0-31.31-50.86-57.46-136.56-72.11,0,0,8.06-6.73,18.26-11.23,10.62-4.68,19.97-7.47,19.97-7.47,96.52,19.3,151.79,51.94,151.79,91.27,0,60.45-151.87,109.46-339.21,109.46s-339.21-49.01-339.21-109.46,153.85-112.02,329.58-112.02c115.02,0,125.91,7.98,125.91,7.98Z"/><path class="cls-1" d="m1683.2,470.51c0,9.98-7.84,17.82-18.03,17.82s-18.14-7.84-18.14-17.82,8.05-17.6,18.14-17.6,18.03,7.84,18.03,17.6Zm-31.67,0c0,7.84,5.8,14.06,13.74,14.06s13.42-6.23,13.42-13.95-5.69-14.17-13.52-14.17-13.63,6.33-13.63,14.06Zm10.84,9.23h-4.08v-17.6c1.61-.32,3.86-.54,6.76-.54,3.33,0,4.83.54,6.12,1.29.97.75,1.72,2.15,1.72,3.86,0,1.93-1.5,3.43-3.65,4.08v.21c1.72.64,2.68,1.93,3.22,4.29.54,2.68.86,3.76,1.29,4.4h-4.4c-.54-.64-.86-2.25-1.4-4.29-.32-1.93-1.4-2.79-3.65-2.79h-1.93v7.08Zm.11-9.98h1.93c2.26,0,4.08-.75,4.08-2.58,0-1.61-1.18-2.68-3.76-2.68-1.07,0-1.83.11-2.25.21v5.05Z"/></g></svg>